<?xml version="1.0" encoding="UTF-8" standalone="no"?><!DOCTYPE svg PUBLIC "-//W3C//DTD SVG 1.1//EN" "http://www.w3.org/Graphics/SVG/1.1/DTD/svg11.dtd"><svg width="100%" height="100%" viewBox="0 0 536 468" version="1.1" xmlns="http://www.w3.org/2000/svg" xmlns:xlink="http://www.w3.org/1999/xlink" xml:space="preserve" xmlns:serif="http://www.serif.com/" style="fill-rule:evenodd;clip-rule:evenodd;stroke-linejoin:round;stroke-miterlimit:2;"><g id="Background"><path d="M307.634,442.382c-20.137,-21.164 -49.574,-58.722 -68.473,-63.491c-13.49,-3.404 -18.525,-3.425 -20.161,-3.431c-84.214,-0.344 -138.504,1.524 -174.636,-35.824c-33.009,-34.12 -32.259,-57.462 -35.265,-73.746c-6.079,-32.924 -2.135,-42.24 -3.54,-67.068c-0.536,-9.467 0.735,-52.371 1.14,-55.66c1.992,-16.194 2.139,-38.977 8.971,-57.749c1.646,-4.523 10.015,-27.516 34.861,-49.041c5.263,-4.56 29.075,-25.19 82.293,-28.358c9.279,-0.552 35.109,-2.09 116.18,-1.784c26.908,0.106 53.816,0.212 80.725,0.318c79.204,0.423 128.513,-1.452 166.301,40.692c34.462,38.434 28.967,67.971 32.321,91.021c2.49,17.113 1.963,99.943 0.816,110.173c-6.391,57.015 -18.186,68.962 -34.94,88.164c-29.512,33.824 -77.314,33.796 -90.753,41.849c-9.151,5.483 0.762,25.795 -6.812,52.151c-6.759,23.519 -34.514,30.182 -43.48,30.492c-29.793,1.029 -44.274,-17.577 -45.546,-18.707Z" style="fill-opacity:1;"/><path d="M205.364,356.43c-16.367,-0.032 -16.316,-0.49 -32.717,0.259c-1.841,0.084 -38.048,0.281 -58.336,-3.703c-24.998,-4.909 -48.575,-11.808 -71.518,-47.241c-9.11,-14.069 -11.382,-25.939 -16.61,-89.462c-2.079,-25.262 2.286,-74.815 2.857,-81.298c2.516,-28.558 1.963,-52.332 32.907,-82.31c33.019,-31.988 88.261,-26.667 155.963,-28.383c6.131,-0.155 136.33,-0.367 170.17,1.332c50.307,2.525 77.328,10.289 103.462,48.407c12.016,17.526 14.459,40.244 17.598,96.426c1.714,30.676 0.023,49.708 -0.359,54.013c-4.829,54.371 -4.212,76.303 -37.33,106.789c-34.605,31.854 -87.077,13.566 -93.032,48.129c-4.838,28.081 4.733,48.617 -14.398,57.105c-27.186,12.062 -41.141,-9.768 -50.194,-19.425c-38.116,-40.661 -47.188,-55.757 -86.662,-60.469c-8.045,-0.96 -8.014,-0.419 -21.802,-0.169Z" style="fill:#fefefe;"/><path d="M429.024,183c1.419,43.76 -19.772,69.084 -24.218,75.684c-35.273,52.349 -119.144,50.648 -170.528,48.033c-8.946,-0.455 -36.286,-4.943 -50.089,-9.967c-35.64,-12.973 -48.728,-28.405 -64.127,-54.726c-11.601,-19.83 -28.639,-74.87 13.369,-122.237c21.951,-24.751 54.495,-33.862 97.586,-39.188c18.222,-2.252 18.224,-1.154 36.529,-1.154c5.027,0 26.704,-2.471 69.796,6.569c2.687,0.564 71.757,10.231 88.458,77.876c3.336,13.511 3.041,14.948 3.225,19.111Z"/><path d="M287.151,245.817c1.29,0.334 16.879,4.371 15.714,-5.524c-0.73,-6.204 -19.259,-13.868 -13.968,-16.793c12.789,-7.071 36.443,-22.611 64.181,8.141c5.63,6.241 15.615,24.883 6.991,35.731c-4.857,6.109 -32.62,16.077 -65.8,16.907c-31.593,0.791 -83.247,3.24 -114.47,-13.592c-10.192,-5.494 -7.647,-16.562 -6.157,-22.256c5.326,-20.347 33.395,-46.36 64.337,-29.761c31.884,17.104 31.298,18.064 34.078,19.744c7.259,4.385 13.838,6.921 15.093,7.404Z" style="fill:#e66b67;"/></g></svg>